<svg xmlns="http://www.w3.org/2000/svg" viewBox="0 0 32 32" width="32" height="32" fill="none">
  <defs>
    <linearGradient id="g" x1="0" y1="0" x2="1" y2="1">
      <stop offset="0%" stop-color="#8ec5ff"/>
      <stop offset="100%" stop-color="#0071e3"/>
    </linearGradient>
  </defs>
  <rect x="2" y="2" width="28" height="28" rx="8" fill="url(#g)" />
  <path d="M9 18.5c0-3.59 2.91-6.5 6.5-6.5S22 14.91 22 18.5c0 .5-.05.98-.15 1.45h2.15c.13-.47.2-.96.2-1.45 0-4.69-3.81-8.5-8.5-8.5S7.2 13.81 7.2 18.5c0 3.27 1.86 6.11 4.58 7.53l.84-1.9A6.49 6.49 0 0 1 9 18.5Z" fill="white"/>
</svg>
